<?xml version="1.0" encoding="utf-8"?>
<!-- Generator: Adobe Illustrator 27.5.0, SVG Export Plug-In . SVG Version: 6.00 Build 0)  -->
<svg version="1.1" id="Capa_1" xmlns="http://www.w3.org/2000/svg" xmlns:xlink="http://www.w3.org/1999/xlink" x="0px" y="0px"
	 viewBox="0 0 2280 1975" style="enable-background:new 0 0 2280 1975;" xml:space="preserve">
<g>
	<path style="fill:#F9BD16;" d="M1996.06,185.285c-55.926-12.65-149.157,4.612-149.157,4.612
		c-385.686,145.837-630.375,623.136-668.059,700.757c-5.618-13.874-10.267-24.283-11.876-28.362
		c-5.074-12.87,24.478-4.087,19.404-59.06c-2.125-23.024-13.954-34.917-25.461-40.82c1.57-3.301,2.724-5.881,2.724-5.881
		c57.98-175.197,98.802-274.983,110.542-272.404c11.738,2.578,28.455,0.802,37.675-16.033c9.221-16.835,4.318-31.543-5.738-32.57
		c-11.54-1.178-28.853,20.037-28.853,20.037c-37.931,43.624-97.159,221.49-119.805,297.906c-0.723,2.439-1.337,4.582-1.896,6.578
		c-7.407-2.744-13.988-3.21-16.789-2.823c-3.047-0.42-10.14,0.547-17.767,3.891c-0.627-2.261-1.346-4.775-2.197-7.645
		c-22.646-76.415-81.874-254.282-119.805-297.906c0,0-17.313-21.216-28.853-20.037c-10.055,1.027-14.959,15.736-5.738,32.57
		c9.221,16.835,25.937,18.612,37.677,16.033c11.739-2.578,52.561,97.207,110.541,272.404c0,0,1.455,3.254,3.326,7.137
		c-10.024,5.802-19.67,16.064-21.213,33.227c-4.944,54.982,20.907,52.528,15.832,65.397c-1.516,3.846-5.743,13.337-10.929,26.038
		c-41.251-84.405-284.942-553.996-666.928-698.433c0,0-93.231-17.262-149.157-4.612c-75.576,17.094-40.089,178.738-21.399,228.748
		c18.69,50.011,64.435,262.808,57.161,287.33c-30.778,103.779-34.402,227.06,51.252,315.754
		c43.362,44.9,214.923,48.231,383.039,39.028c-109.312,13.922-210.513,30.974-248.06,49.428
		c-65.001,31.95-111.453,51.431-109.383,149.19c1.354,63.901-8.855,62.83-14.505,95.286c-5.651,32.456-30.491,47.226-5.373,76.878
		c25.118,29.652,46.754,45.257,40.974,75.696c-5.781,30.439-9.58,91.682,13.594,91.091c23.173-0.591,49.682,50.68,56.128,70.71
		c6.446,20.03,23.581,45.847,63.759,69.056c40.179,23.209,85.618,7.915,104.808,25.6c19.191,17.687,34.784,37.484,93.165,33.976
		c58.381-3.508,42.03-15.997,91.601-55.813c88.286-70.914,89.327-241.352,142.378-314.598
		c52.04-71.851,100.621-149.701,115.72-212.855c0.369-1.541,0.621-3.031,0.95-4.554c16.913,24.431,17.418,28.443,16.7,57.537
		c-0.393,15.942-10.846,37.635-21.29,81.191c-10.442,43.556-15.174,79.057-6.082,121.951c4.15,19.577,23.473,93.934,50.073,97.229
		c30.171-13.427,44.105-81.934,48.95-101.378c6.15-24.682,16.317-68.229,5.874-111.785c-10.443-43.556-27.648-44.45-18.887-87.208
		c6.399-31.226,5.671-32.797,9.094-43.335c17.463,61.338,63.686,134.96,113.117,203.208
		c53.05,73.246,54.091,243.684,142.377,314.598c49.57,39.816,33.221,52.305,91.601,55.813c58.381,3.508,73.973-16.289,93.164-33.976
		c19.191-17.686,64.631-2.391,104.809-25.6c40.178-23.209,57.313-49.026,63.759-69.056c6.446-20.031,32.954-71.301,56.128-70.71
		c23.173,0.591,19.375-60.652,13.594-91.091c-5.78-30.44,15.856-46.044,40.974-75.696c25.118-29.651,0.277-44.422-5.373-76.878
		c-5.651-32.456-15.859-31.386-14.506-95.286c2.07-97.759-44.381-117.24-109.382-149.19
		c-37.547-18.455-138.748-35.506-248.06-49.428c168.117,9.203,339.678,5.872,383.039-39.028
		c85.654-88.694,82.031-211.975,51.252-315.754c-7.273-24.522,38.471-237.319,57.161-287.33
		C2036.148,364.022,2071.636,202.379,1996.06,185.285z"/>
	<path style="fill:#E88623;" d="M1996.06,185.285c-55.926-12.65-149.157,4.612-149.157,4.612
		c-385.686,145.837-630.375,623.136-668.059,700.757c-5.618-13.874-10.267-24.283-11.876-28.362
		c-5.074-12.87,24.478-4.087,19.404-59.06c-2.125-23.024-13.954-34.917-25.461-40.82c1.57-3.301,2.724-5.881,2.724-5.881
		c57.98-175.197,98.802-274.983,110.542-272.404c11.738,2.578,28.455,0.802,37.675-16.033c9.221-16.835,4.318-31.543-5.738-32.57
		c-11.54-1.178-28.853,20.037-28.853,20.037c-37.931,43.624-97.159,221.49-119.805,297.906c-0.723,2.439-1.337,4.582-1.896,6.578
		c-7.407-2.744-13.988-3.21-16.789-2.823c-3.047-0.42-10.14,0.547-17.767,3.891c-0.627-2.261-1.346-4.775-2.197-7.645
		c-22.646-76.415-81.874-254.282-119.805-297.906c0,0-17.313-21.216-28.853-20.037c-10.055,1.027-14.959,15.736-5.738,32.57
		c9.221,16.835,25.937,18.612,37.677,16.033c11.739-2.578,52.561,97.207,110.541,272.404c0,0,1.455,3.254,3.326,7.137
		c-10.024,5.802-19.67,16.064-21.213,33.227c-4.944,54.982,20.907,52.528,15.832,65.397c-1.516,3.846-5.743,13.337-10.929,26.038
		c-41.251-84.405-284.942-553.996-666.928-698.433c0,0-93.231-17.262-149.157-4.612c-75.576,17.094-40.089,178.738-21.399,228.748
		c18.69,50.011,64.435,262.808,57.161,287.33c-30.778,103.779-34.402,227.06,51.252,315.754
		c43.362,44.9,214.923,48.231,383.039,39.028c-109.312,13.922-210.513,30.974-248.06,49.428
		c-65.001,31.95-111.453,51.431-109.383,149.19c1.354,63.901-8.855,62.83-14.505,95.286c-5.651,32.456-30.491,47.226-5.373,76.878
		c25.118,29.652,46.754,45.257,40.974,75.696c-5.781,30.439-9.58,91.682,13.594,91.091c23.173-0.591,49.682,50.68,56.128,70.71
		c6.446,20.03,23.581,45.847,63.759,69.056c40.179,23.209,85.618,7.915,104.808,25.6c19.191,17.687,34.784,37.484,93.165,33.976
		c58.381-3.508,42.03-15.997,91.601-55.813c88.286-70.914,89.327-241.352,142.378-314.598
		c52.04-71.851,100.621-149.701,115.72-212.855c0.369-1.541,0.621-3.031,0.95-4.554c16.913,24.431,17.418,28.443,16.7,57.537
		c-0.393,15.942-10.846,37.635-21.29,81.191c-10.442,43.556-15.174,79.057-6.082,121.951c4.15,19.577,23.473,93.934,50.073,97.229
		c30.171-13.427,44.105-81.934,48.95-101.378c6.15-24.682,16.317-68.229,5.874-111.785c-10.443-43.556-27.648-44.45-18.887-87.208
		c6.399-31.226,5.671-32.797,9.094-43.335c17.463,61.338,63.686,134.96,113.117,203.208
		c53.05,73.246,54.091,243.684,142.377,314.598c49.57,39.816,33.221,52.305,91.601,55.813c58.381,3.508,73.973-16.289,93.164-33.976
		c19.191-17.686,64.631-2.391,104.809-25.6c40.178-23.209,57.313-49.026,63.759-69.056c6.446-20.031,32.954-71.301,56.128-70.71
		c23.173,0.591,19.375-60.652,13.594-91.091c-5.78-30.44,15.856-46.044,40.974-75.696c25.118-29.651,0.277-44.422-5.373-76.878
		c-5.651-32.456-15.859-31.386-14.506-95.286c2.07-97.759-44.381-117.24-109.382-149.19
		c-37.547-18.455-138.748-35.506-248.06-49.428c168.117,9.203,339.678,5.872,383.039-39.028
		c85.654-88.694,82.031-211.975,51.252-315.754c-7.273-24.522,38.471-237.319,57.161-287.33
		C2036.148,364.022,2071.636,202.379,1996.06,185.285z M1613.177,1406.184c0.963,14.299,2.069,31.266-2.869,43.88
		c-11.088,23.196-54.26,7.963-73.259-0.572c-22.323-10.113-40.855-22.906-57.235-41.058c-16.957-17.88-35.139-37.636-52.523-55.09
		c-24.691-24.265-49.826-48.095-80.187-65.828c-10.805-5.799-21.66-11.359-32.539-16.823c-1.521-7.996-34.879-35.755-51.601-42.443
		c-20.379-8.152,74.721,19.02,86.861,18.303c12.142-0.717-50.18-19.661-64.789-26.138c-14.608-6.477,41.78-5.751,56.724,0
		c14.944,5.75-38.04-16.619-55.573-23.542c-11.309-4.465,63.098-6.448,117.373-7.293c23.154,0.919,46.276,2.396,69.315,4.76
		c34.156,4.011,69.68,8.739,100.867,23.449c14.822,19.985,35.791,56.327,32.266,86.295
		C1603.281,1339.963,1611.069,1373.671,1613.177,1406.184z M1761.562,1463.134c3.892,32.421,16.983,70.712,3.12,79.984
		c-2.665,1.782-5.589,3.285-8.626,4.753c-17.101-9.107-60.782-33.013-86.805-53.049c-15.805-12.169-26.155-27.284-32.688-39.729
		c5.176-16.311,3.481-34.84,2.18-51.237c-2.765-27.415-9.172-53.484-11.602-80.301c64.15,39.945,113.069,97.823,134.943,126.364
		C1761.282,1454.116,1761.004,1458.489,1761.562,1463.134z M1401.956,1418.776c-14.225-34.89-13.236-56.655-10.269-68.43
		c30.509,30.354,58.079,64.642,88.721,94.232c6.387,5.287,14.226,10.916,22.985,16.324c11.886,19.667,59.565,98.943,77.204,136.086
		c14.751,31.061,9.595,70.393,6.144,87.943c-2.823,2.154-5.884,4.548-9.591,7.15c-15.874,11.141-27.083,7.138-47.063-10.339
		c-4.862-4.253-8.983-7.462-12.726-9.859v-0.006C1516.598,1652.707,1425.4,1476.279,1401.956,1418.776z M1663.261,1516.603
		c21.247,15.081,43.054,70.502,51.868,94.909c-3.566,11.894-8.228,21.312-18.949,31.271c-18.099,16.811-53.226,31.421-76.073,31.021
		c-16.493-11.707,3.146-38.958-11.849-77.282c-12.347-31.558-66.522-99.937-86.223-125.256
		c30.409,15.118,66.46,24.374,92.704,10.766C1624.716,1489.161,1644.083,1502.99,1663.261,1516.603z M420.02,626.41
		c0,0-21.64-24.454,8.995-24.454c30.635,0,84.858,46.19,67.256,24.454c-17.602-21.737-72.102-57.059-45.531-48.908
		c26.571,8.151,94.37,57.583,76.094,34.226c-18.275-23.357-74.184-81.797-53.637-73.624c20.548,8.174,37.798,26.103,79.374,51.065
		c41.576,24.962,85.05,54.902,105.428,87.507c20.379,32.605,49.825,55.701,17.441,38.04c-32.385-17.661-87.82-42.115-79.122-32.605
		c8.699,9.51,54.889,27.171,30.435,27.171c-24.454,0-109.961-38.039-92.341-21.737c12.302,11.381,24.615,23.396,34.631,29.397
		c10.623,2.134,16.726,3.558,11.519,3.879c-3.281,0.203-7.188-1.285-11.519-3.879c-11.547-2.319-28.444-5.481-42.208-9.019
		c-26.427-6.793-38.346-12.227-60.237-12.227c-21.892,0-25.041,5.434-40.447-4.076c-15.408-9.51,8.553-25.813,7.441-40.757
		C432.477,635.92,420.02,626.41,420.02,626.41z M581.013,432.659c26.265,23.027,36.736,79.18,31.953,72.84
		c-4.783-6.34-26.519-43.474-17.462-21.737c9.057,21.737,34.416,75.479,27.171,66.722c-7.245-8.756-32.605-49.813-21.737-25.21
		c10.868,24.604,42.568,64.455,27.171,58.115c-15.397-6.34-66.561-91.476-62.716-74.268c3.846,17.208,39.168,55.247,16.526,35.322
		c-22.586-19.875-108.968-116.992-104.092-93.777c-1.229-2.632-1.94-4.96-1.901-6.846c0.075-3.605,2.956-7.496,8.119-11.198
		C486.399,431.866,555.198,410.027,581.013,432.659z M795.211,618.259c33.964,42.115,51.625,44.832,96.458,104.608
		c44.832,59.776,116.835,149.441,76.079,115.477C926.99,804.38,823.741,710.124,861.78,752.497
		c38.04,42.374,81.513,69.736,101.892,101.566c20.378,31.83-62.493-3.492-32.605,15.527c29.888,19.02,35.323,31.311,66.569,61.846
		c31.246,30.535,40.756,35.924,59.776,67.873c4.812,8.084,9.356,15.503,13.097,21.784c0.546,5.638,1.288,11.082,2.165,16.336
		c-1.29-0.964-2.713-2.07-4.394-3.455c-23.095-19.02-81.513-77.437-134.496-122.269C880.8,866.874,759.889,778.568,738.152,744.604
		c-12.772-19.956-41.349-55.569-61.315-80.221c-4.491-6.739-9.096-13.417-13.755-19.892l0.001,0c0,0-2.457-8.425-5.839-21.449
		c-0.785-16.667-5.223-42.787-12.834-56.427c-4.14-21.786-7.219-44.081-6.818-60.921c0.694-29.168,9.058-55.209,13.436-71.659
		c0.082,0.031,0.162,0.059,0.244,0.089c4.646,2.516,79.054,43.368,119.667,101.261c41.935,59.776,123.447,144.007,109.862,142.648
		C867.215,676.676,761.247,576.144,795.211,618.259z M473.195,971.331c-21.776-15.095-10.829-22.944-6.6-51.127
		c2.566-17.1-4.276-26.878-10.058-31.949c19.702,9.51,51.386,23.293,48.865,12.236c-3.639-15.957-59.031-43.127-38.807-40.41
		c20.224,2.717,73.078,30.297,60.237,20.583c-12.842-9.714-75.863-39.856-36.201-32.937c39.662,6.92,167.365,35.45,136.119,17.788
		c-31.247-17.661-66.213-35.323-75.901-50.266c-9.688-14.944-48.007-29.888,1.719-21.737c49.728,8.151,61.955,17.661,97.277,24.454
		c35.322,6.793,44.832,7.898,86.947,29.761c42.115,21.864,91.023,41.576,120.911,72.477c29.888,30.9,131.78,122.04,105.967,107.037
		c-25.813-15.002-86.947-32.663-55.701-16.361c31.247,16.303,61.135,25.813,92.382,46.191c18.699,12.195,46.191,38.16,67.274,57.555
		c-7.86-3.5-16.159-6.874-23.8-9.558c-21.702-7.626-119.553-45.279-154.875-61.582c-35.323-16.302-62.493-16.302-97.816-29.078
		c-35.322-12.775-57.059,1.907-99.183-6.244c-42.124-8.151-66.56-14.944-65.201-8.877c1.359,6.068,54.342,18.387,31.246,14.311
		c-23.095-4.076-72.003,2.717-115.477-14.287C499.046,982.306,494.971,986.427,473.195,971.331z M1853.471,691.621
		c-15.407,9.51-18.557,4.076-40.447,4.076c-21.891,0-33.81,5.434-60.238,12.227c-13.764,3.538-30.661,6.699-42.208,9.019
		c-4.331,2.595-8.238,4.082-11.519,3.879c-5.207-0.322,0.896-1.745,11.519-3.879c10.016-6.001,22.33-18.016,34.631-29.397
		c17.62-16.302-67.887,21.737-92.341,21.737c-24.454,0,21.737-17.661,30.435-27.171c8.698-9.51-46.737,14.944-79.122,32.605
		c-32.385,17.661-2.938-5.434,17.441-38.04c20.378-32.605,63.852-62.545,105.428-87.507c41.576-24.962,58.827-42.892,79.374-51.065
		c20.547-8.174-35.361,50.266-53.638,73.624c-18.275,23.357,49.523-26.074,76.094-34.226c26.571-8.151-27.93,27.171-45.531,48.908
		c-17.601,21.737,36.622-24.454,67.256-24.454c30.635,0,8.995,24.454,8.995,24.454s-12.459,9.51-13.57,24.454
		C1844.918,665.808,1868.879,682.111,1853.471,691.621z M1656.945,550.484c-7.246,8.757,18.114-44.985,27.171-66.722
		c9.057-21.737-12.68,15.397-17.462,21.737c-4.783,6.34,5.688-49.813,31.953-72.84c25.809-22.627,94.588-0.8,96.967-0.036
		c5.163,3.702,8.045,7.593,8.12,11.198c0.039,1.887-0.671,4.213-1.901,6.845c4.87-23.208-81.507,73.903-104.092,93.778
		c-22.643,19.925,12.68-18.114,16.524-35.322c3.846-17.208-47.318,67.927-62.716,74.268c-15.397,6.34,16.303-33.511,27.171-58.115
		C1689.55,500.67,1664.19,541.727,1656.945,550.484z M1628.348,434.125c0.082-0.03,0.162-0.058,0.245-0.089
		c4.378,16.45,12.742,42.49,13.436,71.659c0.401,16.84-2.678,39.136-6.819,60.922c-7.61,13.64-12.049,39.757-12.834,56.424
		c-3.382,13.025-5.839,21.45-5.839,21.45v0c-4.66,6.476-9.264,13.154-13.756,19.894c-19.966,24.653-48.542,60.263-61.314,80.22
		c-21.737,33.964-142.648,122.269-195.631,167.102c-52.983,44.832-111.401,103.25-134.497,122.269
		c-3.133,2.58-5.511,4.35-7.329,5.507c0.863-4.411,1.649-8.929,2.286-13.599c4.143-7.141,9.806-16.316,15.912-26.572
		c19.02-31.949,28.53-37.338,59.777-67.873c31.246-30.536,36.68-42.826,66.569-61.846c29.888-19.02-52.983,16.302-32.605-15.527
		c20.378-31.83,63.852-59.193,101.891-101.566c38.04-42.374-65.21,51.883-105.967,85.847
		c-40.756,33.963,31.247-55.701,76.079-115.477s62.493-62.493,96.457-104.608c33.964-42.115-72.003,58.418-85.589,59.776
		c-13.586,1.359,67.928-82.872,109.862-142.648C1549.296,477.493,1623.704,436.641,1628.348,434.125z M1652.869,999.286
		c1.359-6.067-23.077,0.726-65.201,8.877c-42.124,8.151-63.861-6.531-99.183,6.244s-62.493,12.775-97.816,29.078
		c-35.323,16.303-133.174,53.957-154.875,61.582c-7.641,2.685-15.941,6.058-23.801,9.558c21.083-19.395,48.574-45.359,67.274-57.554
		c31.246-20.378,61.134-29.888,92.382-46.191c31.246-16.302-29.888,1.359-55.701,16.361
		c-25.813,15.003,76.079-76.137,105.967-107.037c29.888-30.901,78.796-50.613,120.911-72.477
		c42.115-21.864,51.625-22.969,86.947-29.761c35.323-6.793,47.549-16.303,97.276-24.454c49.728-8.152,11.408,6.793,1.72,21.737
		c-9.688,14.944-44.654,32.605-75.901,50.266c-31.246,17.661,96.457-10.868,136.119-17.788
		c39.661-6.919-23.359,23.222-36.201,32.937c-12.841,9.715,40.013-17.866,60.238-20.583c20.224-2.717-35.168,24.454-38.807,40.41
		c-2.521,11.057,29.163-2.726,48.865-12.236c-5.783,5.071-12.624,14.849-10.058,31.949c4.229,28.183,15.175,36.032-6.6,51.127
		c-21.776,15.095-25.851,10.974-69.325,27.979c-43.474,17.004-92.381,10.212-115.477,14.287S1651.51,1005.354,1652.869,999.286z
		 M747.664,1061.273c14.171,0.756,28.28,1.923,42.275,3.646c57.313,14.051,162.124,40.691,160.147,47.139
		c-2.717,8.865-104.608-24.755-70.644-11.342c33.964,13.414,138.572,37.986,108.684,37.927c-29.888-0.059-77.266-6.733-58.332,0
		c18.934,6.733,84.213,23.316,45.46,23.176c-38.753-0.14-119.876,12.099-101.731,11.414c18.146-0.685,49.156-1.976,44.52,0.028
		c-2.432,1.051-28.62,5.325-52.979,9.153c-19.732,0.95-39.448,2.32-59.132,4.338c-35.157,4.351-71.312,8.599-103.577,24.519
		c-21.711-21.977-48.742-37.553-73.504-55.804c-7.452-5.147-14.916-10.24-22.384-15.318c7.254-2.853,14.733-6.127,22.437-10.093
		C666.609,1110.651,717.302,1080.019,747.664,1061.273z M508.466,1191.161c12.925-29.337,42.977-32.294,82.07-45.266
		c25.882,12.073,51.252,25.264,75.684,39.938c12.156,7.931,24.922,15.778,34.694,26.362c-5.79,5.218-11.263,10.864-16.323,16.865
		c-41.1,1.912-136.154,12.252-185.371,17.799C499.134,1228.351,500.036,1210.296,508.466,1191.161z M674.364,1242.601
		c-13.419,20.042-21.776,43.249-20.946,68.309c-0.028,0.673-0.1,1.335-0.133,2.006c-31.386,19.815-125.235,79.967-151.32,106.863
		c-8.97-11.535-19.275-22.277-24.468-33.962c-10.911-24.549,9.283-38.224,18.353-80.251c2.184-10.12,3.052-19.769,3.371-29.133
		C542.858,1259.335,644.249,1246.225,674.364,1242.601z M762.256,1671.884c-3.743,2.397-7.864,5.606-12.725,9.858
		c-19.98,17.477-31.19,21.48-47.063,10.339c-3.707-2.602-6.769-4.997-9.592-7.15c-3.451-17.551-8.608-56.882,6.144-87.943
		c17.64-37.145,65.324-116.429,77.208-136.09c8.745-5.402,16.581-11.028,22.984-16.321c30.646-29.596,58.212-63.881,88.719-94.233
		c2.967,11.774,3.958,33.54-10.268,68.432c-23.445,57.503-114.642,233.931-115.408,253.101
		C762.256,1671.879,762.256,1671.881,762.256,1671.884z M517.535,1449.919c21.882-28.551,70.825-86.458,135.005-126.404
		c-2.505,26.883-8.842,52.867-11.665,80.341c-1.286,16.392-2.991,34.925,2.182,51.238c-6.533,12.445-16.885,27.559-32.689,39.728
		c-26.022,20.036-69.704,43.942-86.804,53.049c-3.037-1.467-5.961-2.971-8.625-4.753c-13.864-9.273-0.773-47.563,3.12-79.984
		C518.616,1458.489,518.337,1454.116,517.535,1449.919z M671.361,1596.52c-14.995,38.324,4.644,65.575-11.849,77.282
		c-22.848,0.4-57.974-14.21-76.072-31.021c-10.722-9.958-15.383-19.377-18.95-31.271c8.814-24.406,30.622-79.828,51.868-94.909
		c19.187-13.619,38.561-27.453,48.533-34.581c26.284,13.608,62.284,4.374,92.686-10.749
		C737.87,1496.598,683.707,1564.966,671.361,1596.52z M796.475,1667.617c8.504-29.723,31.625-109.439,44.321-142.607
		c14.483-37.837,67.466-172.158,76.028-201.036c8.327-6.874,16.928-13.37,25.97-19.257c12.71-7.938,26.4-15.448,39.934-22.878
		c-18.322,13.57-32.28,25.213-21.774,22.237c23.096-6.541,71.898-36.757,71.952-34.555c0.052,2.202-16.25,18.013-48.856,49.505
		c-32.605,31.492-32.433,31.728-54.256,71.688c-21.823,39.959-57.146,143.181-69.372,175.8
		c-12.226,32.619-24.75,67.761-29.888,82.283c-1.441,4.074-2.589,8.567-3.223,12.646
		C817.255,1671.66,810.345,1670.118,796.475,1667.617z M932.515,1287.515c-30.363,17.735-55.494,41.561-80.186,65.828
		c-17.411,17.485-35.549,37.154-52.524,55.089c-16.386,18.155-34.904,30.934-57.236,41.06c-18.786,8.456-62.275,23.805-73.257,0.57
		c-4.952-12.587-3.844-29.582-2.87-43.879c2.107-32.513,9.897-66.221,7.17-102.103c-3.541-30.011,17.479-66.248,32.263-86.297
		c38.618-17.522,99.238-25.467,164.403-28.293c54.583,0.793,134.869,2.755,123.153,7.381c-17.533,6.923-70.517,29.292-55.573,23.542
		c14.944-5.751,71.332-6.477,56.724,0c-14.609,6.477-76.93,25.421-64.789,26.138c12.141,0.717,107.24-26.455,86.862-18.303
		c-16.723,6.689-50.08,34.449-51.601,42.444C954.175,1276.156,943.32,1281.717,932.515,1287.515z M1452.308,1661.443
		c-0.633-4.079-1.781-8.572-3.222-12.646c-5.139-14.522-17.661-49.663-29.889-82.283c-12.227-32.619-47.549-135.841-69.372-175.8
		c-21.822-39.96-21.65-40.195-54.255-71.688c-32.606-31.492-48.908-47.303-48.856-49.505c0.052-2.202,48.856,28.014,71.95,34.555
		c10.507,2.975-3.453-8.668-21.776-22.238c13.535,7.431,27.225,14.942,39.938,22.88c9.04,5.886,17.642,12.382,25.968,19.257
		c8.563,28.881,61.545,163.199,76.029,201.036c12.695,33.168,35.816,112.885,44.321,142.607
		C1469.275,1670.118,1462.365,1671.66,1452.308,1661.443z M1783.772,1305.567c9.069,42.027,29.263,55.702,18.351,80.251
		c-5.193,11.685-15.498,22.427-24.469,33.962c-26.058-26.87-119.75-86.932-151.23-106.808c-0.126-2.748-0.281-5.49-0.295-8.262
		c-0.469-22.967-8.567-43.847-20.871-62.109c30.116,3.624,131.503,16.734,175.142,33.833
		C1780.719,1285.799,1781.587,1295.447,1783.772,1305.567z M1771.153,1191.161c8.43,19.134,9.332,37.19,9.245,55.698
		c-49.231-5.549-144.332-15.894-185.41-17.802c-5.01-5.928-10.425-11.516-16.117-16.734c21.154-21.596,49.772-35.414,76.206-49.662
		c11.262-5.761,22.66-11.317,34.129-16.724C1728.239,1158.875,1758.242,1161.854,1771.153,1191.161z M1531.955,1061.273
		c30.362,18.746,81.055,49.378,118.762,68.784c7.711,3.969,15.198,7.246,22.459,10.101c-20.686,14.08-41.302,28.238-61.599,42.956
		c-11.94,8.696-23.988,17.201-34.207,27.974c-39.028-17.977-100.088-26.177-165.746-29.135c-23.485-3.704-47.712-7.683-50.047-8.692
		c-4.637-2.004,26.374-0.713,44.519-0.028c18.145,0.686-62.978-11.554-101.731-11.414c-38.753,0.14,26.525-16.443,45.459-23.176
		c18.934-6.733-28.443-0.059-58.331,0c-29.888,0.059,74.72-24.514,108.684-37.927s-67.928,20.207-70.645,11.342
		c-1.976-6.448,102.835-33.088,160.146-47.139C1503.675,1063.196,1517.785,1062.03,1531.955,1061.273z"/>
	<path style="fill:#17140D;" d="M1996.06,185.285c-55.926-12.65-149.157,4.612-149.157,4.612
		c-385.686,145.837-630.375,623.136-668.059,700.757c-5.618-13.874-10.267-24.283-11.876-28.362
		c-5.074-12.87,24.478-4.087,19.404-59.06c-2.125-23.024-13.954-34.917-25.461-40.82c1.57-3.301,2.724-5.881,2.724-5.881
		c57.98-175.197,98.802-274.983,110.542-272.404c11.738,2.578,28.455,0.802,37.675-16.033c9.221-16.835,4.318-31.543-5.738-32.57
		c-11.54-1.178-28.853,20.037-28.853,20.037c-37.931,43.624-97.159,221.49-119.805,297.906c-0.723,2.439-1.337,4.582-1.896,6.578
		c-7.407-2.744-13.988-3.21-16.789-2.823c-3.047-0.42-10.14,0.547-17.767,3.891c-0.627-2.261-1.346-4.775-2.197-7.645
		c-22.646-76.415-81.874-254.282-119.805-297.906c0,0-17.313-21.216-28.853-20.037c-10.055,1.027-14.959,15.736-5.738,32.57
		c9.221,16.835,25.937,18.612,37.677,16.033c11.739-2.578,52.561,97.207,110.541,272.404c0,0,1.455,3.254,3.326,7.137
		c-10.024,5.802-19.67,16.064-21.213,33.227c-4.944,54.982,20.907,52.528,15.832,65.397c-1.516,3.846-5.743,13.337-10.929,26.038
		c-41.251-84.405-284.942-553.996-666.928-698.433c0,0-93.231-17.262-149.157-4.612c-75.576,17.094-40.089,178.738-21.399,228.748
		c18.69,50.011,64.435,262.808,57.161,287.33c-30.778,103.779-34.402,227.06,51.252,315.754
		c43.362,44.9,214.923,48.231,383.039,39.028c-109.312,13.922-210.513,30.974-248.06,49.428
		c-65.001,31.95-111.453,51.431-109.383,149.19c1.354,63.901-8.855,62.83-14.505,95.286c-5.651,32.456-30.491,47.226-5.373,76.878
		c25.118,29.652,46.754,45.257,40.974,75.696c-5.781,30.439-9.58,91.682,13.594,91.091c23.173-0.591,49.682,50.68,56.128,70.71
		c6.446,20.03,23.581,45.847,63.759,69.056c40.179,23.209,85.618,7.915,104.808,25.6c19.191,17.687,34.784,37.484,93.165,33.976
		c58.381-3.508,42.03-15.997,91.601-55.813c88.286-70.914,89.327-241.352,142.378-314.598
		c52.04-71.851,100.621-149.701,115.72-212.855c-45.075,19.269-89.521,38.883-133.366,60.902
		c-10.879,5.463-21.734,11.024-32.539,16.822c-30.363,17.735-55.494,41.561-80.186,65.828
		c-17.411,17.485-35.549,37.154-52.524,55.089c-16.386,18.155-34.904,30.934-57.236,41.06c-18.786,8.456-62.275,23.805-73.257,0.57
		c-4.952-12.587-3.844-29.582-2.87-43.879c2.107-32.513,9.897-66.221,7.17-102.103c-3.541-30.011,17.479-66.248,32.263-86.297
		c38.618-17.522,99.238-25.467,164.403-28.293c77.529-3.361,161.443,0.531,222.553,4.285c1.527,3.506,3.032,6.42,4.399,8.378
		c0.758,1.086,1.438,2.071,2.139,3.083c16.913,24.431,17.418,28.443,16.7,57.537c-0.393,15.942-10.846,37.635-21.29,81.191
		c-10.442,43.556-15.174,79.057-6.082,121.951c4.15,19.577,23.473,93.934,50.073,97.229c30.171-13.427,44.105-81.934,48.95-101.378
		c6.15-24.682,16.317-68.229,5.874-111.785c-10.443-43.556-27.648-44.45-18.887-87.208c6.399-31.226,5.671-32.797,9.094-43.335
		c17.463,61.338,63.686,134.96,113.117,203.208c53.05,73.246,54.091,243.684,142.377,314.598
		c49.57,39.816,33.221,52.305,91.601,55.813c58.381,3.508,73.973-16.289,93.164-33.976c19.191-17.686,64.631-2.391,104.809-25.6
		c40.178-23.209,57.313-49.026,63.759-69.056c6.446-20.031,32.954-71.301,56.128-70.71c23.173,0.591,19.375-60.652,13.594-91.091
		c-5.78-30.44,15.856-46.044,40.974-75.696c25.118-29.651,0.277-44.422-5.373-76.878c-5.651-32.456-15.859-31.386-14.506-95.286
		c2.07-97.759-44.381-117.24-109.382-149.19c-37.547-18.455-138.748-35.506-248.06-49.428
		c168.117,9.203,339.678,5.872,383.039-39.028c85.654-88.694,82.031-211.975,51.252-315.754
		c-7.273-24.522,38.471-237.319,57.161-287.33C2036.148,364.022,2071.636,202.379,1996.06,185.285z M1652.078,502.398
		c-0.689-8.067,2.699-53.244,4.603-77.353c66.292-17.599,119.38-6.415,138.893,7.578c5.163,3.702,8.045,7.593,8.12,11.198
		c0.039,1.887-0.671,4.213-1.901,6.845c-14.897,31.887-116.77,114.743-158.034,159.729c-3.408,3.716-6.857,7.748-10.32,11.976
		C1638.083,596.2,1652.876,511.764,1652.078,502.398z M1650.732,621.935c48.772-43.675,173.668-139.69,173.668-139.69
		c32.978-25.568,42.697,54.034,43.261,66.739c0.563,12.706,5.126,21.65,15.991,65.611c10.866,43.961,25.67,51.832,37.819,72.979
		c12.151,21.146-17.799,45.362-61.269,38.892c-43.469-6.47-286.873,17.814-286.873,17.814S1601.96,665.611,1650.732,621.935z
		 M1538.384,484.849c30.792-23.686,61.247-39.941,89.965-50.724c0.082-0.03,0.162-0.058,0.245-0.089
		c4.378,16.45,12.742,42.49,13.436,71.659c0.401,16.84-2.678,39.136-6.819,60.922c-4.011,21.108-9.012,41.708-12.834,56.424
		c-3.382,13.025-5.839,21.45-5.839,21.45v0c-4.66,6.476-9.264,13.154-13.756,19.894c-30.248,45.386-55.231,93.03-55.231,93.03
		s-250.715,219.455-352.328,321.756c2.258-11.95,5.945-25.143,8.788-39.689c0.863-4.411,1.649-8.929,2.286-13.599
		c1.104-8.101,1.789-16.585,1.681-25.505c-0.3-24.773-9.325-56.163-18.893-82.938
		C1246.279,832.175,1425.713,571.519,1538.384,484.849z M1613.177,1406.184c0.963,14.299,2.069,31.266-2.869,43.88
		c-11.088,23.196-54.26,7.963-73.259-0.572c-22.323-10.113-40.855-22.906-57.235-41.058c-16.957-17.88-35.139-37.636-52.523-55.09
		c-24.691-24.265-49.826-48.095-80.187-65.828c-10.805-5.799-21.66-11.359-32.539-16.823
		c-42.176-21.18-84.897-40.141-128.213-58.702c0.955-2.708,2.103-5.913,3.507-9.836c1.071-2.992,2.074-5.97,3.035-8.941
		c23.285-1.442,46.61-2.565,69.923-3.393c46.849-1.491,93.871-2.103,140.744-0.242c23.154,0.919,46.276,2.396,69.315,4.76
		c34.156,4.011,69.68,8.739,100.867,23.449c14.822,19.985,35.791,56.327,32.266,86.295
		C1603.281,1339.963,1611.069,1373.671,1613.177,1406.184z M1761.562,1463.134c3.892,32.421,16.983,70.712,3.12,79.984
		c-2.665,1.782-5.589,3.285-8.626,4.753c-17.101-9.107-60.782-33.013-86.805-53.049c-15.805-12.169-26.155-27.284-32.688-39.729
		c5.176-16.311,3.481-34.84,2.18-51.237c-2.765-27.415-9.172-53.484-11.602-80.301c64.15,39.945,113.069,97.823,134.943,126.364
		C1761.282,1454.116,1761.004,1458.489,1761.562,1463.134z M1401.956,1418.776c-14.225-34.89-13.236-56.655-10.269-68.43
		c30.509,30.354,58.079,64.642,88.721,94.232c6.387,5.287,14.226,10.916,22.985,16.324c11.886,19.667,59.565,98.943,77.204,136.086
		c14.751,31.061,9.595,70.393,6.144,87.943c-2.823,2.154-5.884,4.548-9.591,7.15c-15.874,11.141-27.083,7.138-47.063-10.339
		c-4.862-4.253-8.983-7.462-12.726-9.859v-0.006C1516.598,1652.707,1425.4,1476.279,1401.956,1418.776z M1663.261,1516.603
		c21.247,15.081,43.054,70.502,51.868,94.909c-3.566,11.894-8.228,21.312-18.949,31.271c-18.099,16.811-53.226,31.421-76.073,31.021
		c-16.493-11.707,3.146-38.958-11.849-77.282c-12.347-31.558-66.522-99.937-86.223-125.256
		c30.409,15.118,66.46,24.374,92.704,10.766C1624.716,1489.161,1644.083,1502.99,1663.261,1516.603z M1089.187,915.429
		c-9.833,27.206-19.313,59.55-19.621,84.949c-0.087,7.208,0.299,14.083,0.943,20.716c0.546,5.638,1.288,11.082,2.165,16.336
		c2.292,13.737,5.363,26.214,7.674,37.682C976.291,971.187,732.069,757.415,732.069,757.415s-24.984-47.646-55.232-93.032
		c-4.491-6.739-9.096-13.417-13.755-19.892l0.001,0c0,0-2.457-8.425-5.839-21.449c-3.823-14.717-8.822-35.317-12.834-56.427
		c-4.14-21.786-7.219-44.081-6.818-60.921c0.694-29.168,9.058-55.209,13.436-71.659c0.082,0.031,0.162,0.059,0.244,0.089
		c28.718,10.783,59.173,27.038,89.965,50.724C853.032,570.847,1030.563,828.145,1089.187,915.429z M484.044,432.623
		c19.512-13.992,72.602-25.177,138.894-7.578c1.905,24.109,5.292,69.285,4.604,77.353c-0.8,9.367,13.994,93.803,18.639,119.973
		c-3.463-4.228-6.912-8.26-10.321-11.976c-41.263-44.985-143.133-127.839-158.034-159.727c-1.229-2.632-1.94-4.96-1.901-6.846
		C476,440.215,478.882,436.325,484.044,432.623z M419.416,726.466c-43.469,6.47-73.419-17.746-61.269-38.892
		c12.151-21.147,26.954-29.018,37.82-72.979c10.866-43.961,15.428-52.905,15.991-65.611c0.564-12.706,10.283-92.307,43.261-66.739
		c0,0,124.897,96.015,173.668,139.69c48.772,43.676,77.402,122.345,77.402,122.345S462.885,719.996,419.416,726.466z
		 M608.347,1031.203c-70.099,2.876-142.415-20.089-164.536-40.635c-22.12-20.547,8.213-57.237,5.671-106.926
		c-2.543-49.69-28.523-62.048,15.245-97.07c43.768-35.022,217.774-24.747,262.535-8.395
		c34.957,12.77,259.371,232.287,356.01,327.844c-0.221,2.719-0.563,5.399-1.19,8.005c-1.833,7.616-2.26,16.368-1.763,25.366
		c-87.799-50.59-207.664-79.453-306.465-94.468h0C698.661,1033.495,635.678,1030.082,608.347,1031.203z M517.535,1449.919
		c21.882-28.551,70.825-86.458,135.005-126.404c-2.505,26.883-8.842,52.867-11.665,80.341c-1.286,16.392-2.991,34.925,2.182,51.238
		c-6.533,12.445-16.885,27.559-32.689,39.728c-26.022,20.036-69.704,43.942-86.804,53.049c-3.037-1.467-5.961-2.971-8.625-4.753
		c-13.864-9.273-0.773-47.563,3.12-79.984C518.616,1458.489,518.337,1454.116,517.535,1449.919z M942.794,1304.717
		c12.71-7.938,26.4-15.448,39.934-22.878c1.166-0.64,2.336-1.284,3.498-1.923c22.575-12.345,73.12-39.055,108.624-57.771
		c-32.694,36.095-86.933,95.385-118.228,126.387c-46.934,46.496-116.494,266.568-135.832,295.453
		c-5.34,7.977-9.633,13.55-13.479,17.457c-10.056,10.218-16.966,8.676-30.836,6.175c8.504-29.723,31.625-109.439,44.321-142.607
		c14.483-37.837,67.466-172.158,76.028-201.036C925.15,1317.1,933.752,1310.604,942.794,1304.717z M799.212,1444.577
		c30.646-29.596,58.212-63.881,88.719-94.233c2.967,11.774,3.958,33.54-10.268,68.432
		c-23.445,57.503-114.642,233.931-115.408,253.101c0,0.002,0,0.004,0,0.006c-3.743,2.397-7.864,5.606-12.725,9.858
		c-19.98,17.477-31.19,21.48-47.063,10.339c-3.707-2.602-6.769-4.997-9.592-7.15c-3.451-17.551-8.608-56.882,6.144-87.943
		c17.64-37.145,65.324-116.429,77.208-136.09C784.973,1455.495,792.809,1449.87,799.212,1444.577z M757.577,1471.273
		c-19.707,25.325-73.87,93.693-86.216,125.247c-14.995,38.324,4.644,65.575-11.849,77.282c-22.848,0.4-57.974-14.21-76.072-31.021
		c-10.722-9.958-15.383-19.377-18.95-31.271c8.814-24.406,30.622-79.828,51.868-94.909c19.187-13.619,38.561-27.453,48.533-34.581
		C691.175,1495.63,727.175,1486.396,757.577,1471.273z M653.417,1310.91c-0.028,0.673-0.1,1.335-0.133,2.006
		c-31.386,19.815-125.235,79.967-151.32,106.863c-8.97-11.535-19.275-22.277-24.468-33.962
		c-10.911-24.549,9.283-38.224,18.353-80.251c2.184-10.12,3.052-19.769,3.371-29.133c43.639-17.1,145.03-30.21,175.144-33.834
		C660.944,1262.643,652.587,1285.85,653.417,1310.91z M684.591,1229.06c-41.1,1.912-136.154,12.252-185.371,17.799
		c-0.086-18.508,0.815-36.564,9.245-55.698c12.925-29.337,42.977-32.294,82.07-45.266c25.882,12.073,51.252,25.264,75.684,39.938
		c12.156,7.931,24.922,15.778,34.694,26.362C695.124,1217.413,689.651,1223.059,684.591,1229.06z M1017.068,1182.198
		c-50.644-1.609-101.382-2.22-152.005,0.217c-19.732,0.95-39.448,2.32-59.132,4.338c-35.157,4.351-71.312,8.599-103.577,24.519
		c-21.711-21.977-48.742-37.553-73.504-55.804c-7.452-5.147-14.916-10.24-22.384-15.318c7.254-2.853,14.733-6.127,22.437-10.093
		c37.705-19.406,88.398-50.039,118.76-68.784c14.171,0.756,28.28,1.923,42.275,3.646c13.31,1.64,26.526,3.724,39.58,6.436
		c123.972,25.75,209.465,68.188,254.742,95.216c1.579,6.986,3.467,13.521,5.448,19.181
		C1065.506,1184.227,1041.305,1183.059,1017.068,1182.198z M1452.308,1661.443c-3.846-3.908-8.138-9.48-13.479-17.457
		c-19.338-28.885-88.899-248.957-135.832-295.453c-31.298-31.006-85.547-90.308-118.24-126.401
		c35.419,18.673,86.204,45.539,108.636,57.785c1.161,0.639,2.331,1.282,3.495,1.922c13.535,7.431,27.225,14.942,39.938,22.88
		c9.04,5.886,17.642,12.382,25.968,19.257c8.563,28.881,61.545,163.199,76.029,201.036c12.695,33.168,35.816,112.885,44.321,142.607
		C1469.275,1670.118,1462.365,1671.66,1452.308,1661.443z M1783.772,1305.567c9.069,42.027,29.263,55.702,18.351,80.251
		c-5.193,11.685-15.498,22.427-24.469,33.962c-26.058-26.87-119.75-86.932-151.23-106.808c-0.126-2.748-0.281-5.49-0.295-8.262
		c-0.469-22.967-8.567-43.847-20.871-62.109c30.116,3.624,131.503,16.734,175.142,33.833
		C1780.719,1285.799,1781.587,1295.447,1783.772,1305.567z M1771.153,1191.161c8.43,19.134,9.332,37.19,9.245,55.698
		c-49.231-5.549-144.332-15.894-185.41-17.802c-5.01-5.928-10.425-11.516-16.117-16.734c21.154-21.596,49.772-35.414,76.206-49.662
		c11.262-5.761,22.66-11.317,34.129-16.724C1728.239,1158.875,1758.242,1161.854,1771.153,1191.161z M1531.955,1061.273
		c30.362,18.746,81.055,49.378,118.762,68.784c7.711,3.969,15.198,7.246,22.459,10.101c-20.686,14.08-41.302,28.238-61.599,42.956
		c-11.94,8.696-23.988,17.201-34.207,27.974c-39.028-17.977-100.088-26.177-165.746-29.135
		c-74.767-3.368-155.421,0.061-216.396,3.678c2.13-7.378,3.82-14.682,4.932-21.902c46.399-27.086,130.253-67.514,249.94-92.374
		c13.054-2.712,26.268-4.797,39.579-6.436C1503.675,1063.196,1517.785,1062.03,1531.955,1061.273z M1671.272,1031.203
		c-27.33-1.121-90.313,2.292-165.505,13.72h-0.002c-98.047,14.901-216.831,43.442-304.444,93.317
		c-0.622-8.213-2.283-16.295-5.324-24.215c-0.744-1.939-1.288-3.931-1.72-5.956c95.442-94.409,322.867-317.029,358.08-329.893
		c44.762-16.352,218.769-26.627,262.536,8.395c43.768,35.022,17.787,47.38,15.245,97.07c-2.543,49.69,27.791,86.379,5.67,106.926
		C1813.687,1011.114,1741.37,1034.079,1671.272,1031.203z"/>
	<path style="fill:#F2EADD;" d="M1514.297,464.742c19.019-13.586,47.549-44.832,76.079-61.135
		c28.529-16.302,50.266-24.454,69.285-46.191c19.02-21.737-6.793-38.04-6.793-38.04s-1.359-6.792-25.812,14.944
		c-24.454,21.737-62.493,52.984-80.154,77.438C1529.24,436.213,1495.276,478.328,1514.297,464.742z"/>
	<path style="fill:#F2EADD;" d="M1646.076,392.876c13.585,1.221,28.915-28.667,59.289-46.328
		c30.375-17.661,54.828-21.737,71.131-46.191c16.302-24.454-0.232-55.787-10.868-44.832
		C1765.629,255.525,1632.49,391.654,1646.076,392.876z"/>
	<path style="fill:#F2EADD;" d="M1714.226,376.436c6.571,2.717,24.232-16.303,45.968-28.53
		c21.737-12.227,44.833-28.53,61.135-42.115c16.302-13.585,24.454-12.227,29.888-25.812c5.434-13.586-7.607-38.834-13.586-32.605
		C1834.24,250.907,1707.656,373.719,1714.226,376.436z"/>
	<path style="fill:#F2EADD;" d="M1761.553,384.588c13.585-2.717,29.888-17.661,54.342-27.171
		c24.454-9.51,61.134-12.227,80.155-24.454c19.02-12.227,27.171-9.51,36.681-28.53c9.51-19.02-6.031-40.148-12.226-36.68
		c0,0-93.741,51.624-126.346,84.23C1761.553,384.588,1747.967,387.305,1761.553,384.588z"/>
	<path style="fill:#F2EADD;" d="M1815.895,404.966c16.303,1.359,33.964-14.71,57.059-19.581
		c23.096-4.872,44.052-3.514,62.783-14.382c18.73-10.869,17.372-2.636,28.24-18.3c10.869-15.664,27.171-57.779,5.434-52.345
		c0,0-50.266,33.964-81.513,52.983C1856.651,372.361,1799.593,403.607,1815.895,404.966z"/>
	<path style="fill:#F2EADD;" d="M1838.99,443.005c13.586,4.076,33.656-4.076,57.584-6.793c23.929-2.717,38.873-5.434,57.892-12.227
		c19.02-6.793,19.02-9.748,29.889-16.421c10.868-6.674,18.191-41.273,6.792-36.562
		C1991.148,371.002,1825.405,438.93,1838.99,443.005z"/>
	<path style="fill:#F2EADD;" d="M1980.126,436.213c0,0-127.55,47.549-107.172,47.549c20.378,0,59.776-6.793,81.513-10.869
		C1976.204,468.818,2005.784,448.44,1980.126,436.213z"/>
	<path style="fill:#F2EADD;" d="M1950.392,500.064c0,0-72.004,5.434-67.928,21.737c4.076,16.303,9.202,27.172,14.111,28.53
		c4.909,1.359,40.231-6.792,53.817-6.792c13.585,0,21.737-10.716,17.661-18.265C1963.977,517.726,1950.392,500.064,1950.392,500.064
		z"/>
	<path style="fill:#F2EADD;" d="M1942.241,608.749c9.51-8.152,11.936-43.147,0-42.115c-4.281,0.37-42.424,0-45.666,13.585
		c-3.243,13.585-7.626,20.378,0,23.096C1904.201,606.031,1932.73,616.9,1942.241,608.749z"/>
	<path style="fill:#F2EADD;" d="M1871.38,805.739c19.235,0,34.179,13.585,39.613-5.434c5.435-19.02-22.044-47.386-28.696-47.55
		c-5.266-0.129-24.288-2.716-21.57,13.586C1863.444,782.643,1852.145,805.739,1871.38,805.739z"/>
	<path style="fill:#F2EADD;" d="M1917.544,872.308c-1.116-9.51-9.463-45.625-20.969-44.832c-3.507,0.242-32.154-1.358-36.718,10.869
		c-4.564,12.227-11.738,17.661,0,27.171c11.739,9.51,19.274,10.868,32.488,13.585
		C1905.56,881.818,1918.659,881.818,1917.544,872.308z"/>
	<path style="fill:#F2EADD;" d="M1871.626,957.897c13.555,1.359,27.14,10.868,32.575-5.434c5.434-16.303-6.173-49.838-11.856-50.266
		c0,0-31.185-2.717-38.873,0c-7.688,2.717,4.157,21.737,6.385,32.605C1862.086,945.67,1858.072,956.538,1871.626,957.897z"/>
	<path style="fill:#F2EADD;" d="M1859.857,975.558c-4.564,9.51-8.146,21.737-13.827,29.888c-5.681,8.151-30.36,13.585-7.832,16.302
		c22.529,2.717,22.194,10.868,32.55,0c10.357-10.868,11.549-46.191,11.549-46.191S1864.421,966.048,1859.857,975.558z"/>
	<path style="fill:#F2EADD;" d="M1935.737,752.531c0,0-23.737-1.134-18.127,9.734c5.611,10.868-8.72,31.247,8.635,35.322
		c17.354,4.076,29.581,12.227,33.657,0C1963.977,785.36,1944.51,752.135,1935.737,752.531z"/>
	<path style="fill:#F2EADD;" d="M1938.604,827.463c0,0-17.215,2.73-12.903,14.957c4.313,12.227-0.544,27.171,10.036,27.171
		c10.579,0,23.913-7.959,24.719-15.527C1961.26,846.495,1951.727,819.004,1938.604,827.463z"/>
	<path style="fill:#F2EADD;" d="M1935.737,900.988c-5.901-0.462-21.02-2.868-18.127,9.359c2.894,12.227-10.405,25.812,3.716,28.529
		c14.121,2.718,27.54,0.064,28.982-7.44C1951.75,923.933,1946.075,901.797,1935.737,900.988z"/>
	<path style="fill:#F2EADD;" d="M1917.61,961.885c0,0-20.51,4.163-21.035,15.031c-0.525,10.868-20.161,23.003-4.23,22.37
		C1908.277,998.653,1935.285,964.29,1917.61,961.885z"/>
	<path style="fill:#F2EADD;" d="M1810.461,1171.189c12.226-8.151,28.688-4.724,18.42-18.665
		c-10.268-13.94-37.44-20.734-37.44-20.734s-14.944,2.718-9.51,16.303C1787.366,1161.68,1798.234,1179.341,1810.461,1171.189z"/>
	<path style="fill:#F2EADD;" d="M1819.971,1192.926c4.076,19.02-0.639,29.888,15.304,27.171
		c15.943-2.717,22.354-4.076,24.582-14.944c2.229-10.868-0.202-32.744-8.948-31.896
		C1850.909,1173.258,1815.895,1173.907,1819.971,1192.926z"/>
	<path style="fill:#F2EADD;" d="M1832.106,1249.985c2.808,19.02,0.306,32.605,13.784,33.964
		c13.479,1.359,20.271-2.717,22.988-14.944c2.717-12.227-9.022-33.964-9.022-33.964S1829.298,1230.966,1832.106,1249.985z"/>
	<path style="fill:#F2EADD;" d="M1840.137,1317.913c0.212,20.379,0.644,31.247,13.334,32.605c12.689,1.359,21.944-4.076,24.789-9.51
		c2.845-5.434-2.273-34.066-8.974-35.323C1869.286,1305.686,1839.927,1297.535,1840.137,1317.913z"/>
	<path style="fill:#F2EADD;" d="M1850.605,1379.048c-6.181,14.944-9.824,29.888,2.866,31.246c12.689,1.359,29.52,8.152,32.653-8.151
		c3.132-16.302-1.247-31.7-7.864-32.605C1878.261,1369.538,1856.786,1364.104,1850.605,1379.048z"/>
	<path style="fill:#F2EADD;" d="M1828.88,1437.466c-10.268,12.227-31.928,27.171-22.457,33.963
		c9.471,6.793,26.708,14.944,33.713,8.152c7.004-6.793,15.452-35.323,15.452-35.323S1839.149,1425.239,1828.88,1437.466z"/>
	<path style="fill:#F2EADD;" d="M1840.137,1505.393c0,0-15.393-13.585-20.497,0c-5.104,13.586-7.122,27.171,0,33.964
		c7.123,6.793,23.135,9.51,25.318,0C1847.141,1529.847,1846.616,1509.676,1840.137,1505.393z"/>
	<path style="fill:#F2EADD;" d="M1804.083,1561.094c-12.642,13.585-34.042,33.963-23.342,39.398c10.699,5.434,18.928,5.434,25.682,0
		c6.753-5.435,25.682-33.964,25.682-33.964S1816.725,1547.508,1804.083,1561.094z"/>
	<path style="fill:#F2EADD;" d="M1758.835,1627.663c-12.227,17.662-38.039,40.757-23.095,44.832c14.944,4.076,23.095,9.51,29.888,0
		c6.793-9.51,15.113-44.832,15.113-44.832S1771.063,1610.002,1758.835,1627.663z"/>
	<path style="fill:#F2EADD;" d="M1700.418,1701.025c-14.944,5.434-42.116,24.454-27.171,25.813
		c14.944,1.359,62.948-4.076,57.966-25.813C1730.201,1696.61,1715.362,1695.59,1700.418,1701.025z"/>
	<path style="fill:#F2EADD;" d="M1595.809,1727.033c-2.717,13.781-4.076,24.259,0,32.41c4.076,8.151,14.944-9.51,33.964-19.162
		c19.02-9.651,0-28.104,0-28.104S1598.526,1713.252,1595.809,1727.033z"/>
	<path style="fill:#F2EADD;" d="M1519.731,1740.281c-10.869,8.01-4.076,20.52-5.434,32.747c-1.359,12.227,28.529,4.076,46.19,0
		c17.661-4.076,5.435-32.747,5.435-32.747S1530.599,1732.272,1519.731,1740.281z"/>
	<path style="fill:#F2EADD;" d="M1593.238,1703.742c-16.086-11.661-38.052,2.408-36.826,8.435
		c0.555,2.731,1.451,24.56,13.632,14.855C1582.224,1717.328,1609.323,1715.403,1593.238,1703.742z"/>
	<path style="fill:#F2EADD;" d="M1680.039,1691.515c1.359-13.585-13.992-13.885-21.94-13.735c-7.948,0.15-19.872,6.942-19.872,6.942
		c-3.019,4.076-4.378,31.814,7.849,27.455C1658.303,1707.818,1678.681,1705.101,1680.039,1691.515z"/>
	<path style="fill:#F2EADD;" d="M1730.672,1604.568c-5.326,8.651,1.409,23.699,9.352,15.246c7.943-8.453,20.17-11.583,21.529-21.566
		c1.359-9.983-12.177-24.06-12.177-24.06S1735.999,1595.917,1730.672,1604.568z"/>
	<path style="fill:#F2EADD;" d="M1700.235,1664.344c1.541,9.51,2.63,22.754,8.878,13.415c6.248-9.339,24.365-35.152,22.1-39.228
		c-2.266-4.076-13.134,0-13.134,0S1698.695,1654.834,1700.235,1664.344z"/>
	<path style="fill:#F2EADD;" d="M1777.839,1545.512c9.527,3.354,26.659,7.43,26.244-6.155c-0.416-13.585-1.205-45.484-9.925-40.002
		c0,0-13.248,4.679-13.417,15.547C1780.573,1525.772,1768.312,1542.158,1777.839,1545.512z"/>
	<path style="fill:#F2EADD;" d="M1828.88,1412.852c1.958-13.426,8.277-35.14-9.24-31.087c0,0-17.859,13.585-15.557,24.454
		C1806.385,1417.087,1826.923,1426.278,1828.88,1412.852z"/>
	<path style="fill:#F2EADD;" d="M1819.64,1294.818c-9.179,4.076-13.216,16.302-13.216,16.302s-0.421,33.964,8.6,32.605
		c9.022-1.359,15.973-10.868,13.856-21.737C1826.763,1311.12,1828.821,1290.742,1819.64,1294.818z"/>
	<path style="fill:#F2EADD;" d="M1795.516,1269.005c8.151,4.076,21.355,6.567,19.508-2.451c-1.847-9.018-4.486-48.348-8.6-46.044
		c-4.115,2.304-17.433,8.882-17.27,21.324C1789.154,1241.834,1787.366,1264.929,1795.516,1269.005z"/>
	<path style="fill:#F2EADD;" d="M1715.778,1131.791c13.169,5.435,29.431,12.227,29.431,0c0-12.227,0-12.227,0-12.227
		s-25.283-24.817-29.431-9.51C1711.631,1125.362,1702.609,1126.357,1715.778,1131.791z"/>
	<path style="fill:#F2EADD;" d="M1777.839,1173.258c9.527-13.984-16.19-27.881-16.19-27.881s-15.323,4.076-5.672,13.585
		C1765.629,1168.473,1768.312,1187.242,1777.839,1173.258z"/>
	<path style="fill:#F2EADD;" d="M1668.898,1111.413c9.783-4.076,19.635-17.267,11.226-19.02c0,0-27.256-6.792-27.256,0
		C1652.869,1099.186,1659.115,1115.489,1668.898,1111.413z"/>
	<path style="fill:#F2EADD;" d="M689.244,403.607c28.529,16.303,57.059,47.549,76.079,61.135
		c19.02,13.585-14.944-28.53-32.605-52.983c-17.661-24.454-55.701-55.701-80.155-77.438c-24.454-21.737-25.812-14.944-25.812-14.944
		s-25.813,16.303-6.793,38.04C638.978,379.154,660.715,387.305,689.244,403.607z"/>
	<path style="fill:#F2EADD;" d="M574.254,346.548c30.375,17.661,45.704,47.549,59.29,46.328
		c13.585-1.222-119.553-137.351-119.553-137.351c-10.636-10.955-27.171,20.378-10.868,44.832
		C519.425,324.811,543.879,328.887,574.254,346.548z"/>
	<path style="fill:#F2EADD;" d="M458.29,305.792c16.303,13.585,39.398,29.888,61.135,42.115
		c21.737,12.227,39.398,31.247,45.968,28.53c6.571-2.717-120.013-125.529-123.405-129.063c-5.979-6.229-19.02,19.02-13.585,32.605
		C433.836,293.565,441.988,292.206,458.29,305.792z"/>
	<path style="fill:#F2EADD;" d="M383.57,332.963c19.02,12.227,55.701,14.944,80.155,24.454c24.453,9.51,40.756,24.454,54.342,27.171
		c13.585,2.717,0,0-32.605-32.605s-126.346-84.23-126.346-84.23c-6.196-3.468-21.737,17.661-12.227,36.68
		C356.398,323.453,364.551,320.735,383.57,332.963z"/>
	<path style="fill:#F2EADD;" d="M343.882,371.002c18.731,10.868,39.688,9.51,62.783,14.382c23.096,4.872,40.757,20.94,57.06,19.581
		c16.302-1.359-40.757-32.605-72.003-51.625c-31.247-19.02-81.513-52.983-81.513-52.983c-21.737-5.434-5.434,36.681,5.434,52.345
		C326.51,368.366,325.152,360.134,343.882,371.002z"/>
	<path style="fill:#F2EADD;" d="M295.264,407.564c10.868,6.673,10.868,9.629,29.888,16.421c19.02,6.793,33.964,9.51,57.892,12.227
		c23.929,2.717,44,10.868,57.585,6.793c13.585-4.076-152.158-72.003-152.158-72.003
		C277.073,366.291,284.396,400.891,295.264,407.564z"/>
	<path style="fill:#F2EADD;" d="M406.665,483.762c20.379,0-107.172-47.549-107.172-47.549c-25.658,12.227,3.922,32.605,25.658,36.68
		C346.889,476.969,386.287,483.762,406.665,483.762z"/>
	<path style="fill:#F2EADD;" d="M383.044,550.331c4.91-1.358,10.036-12.227,14.111-28.53c4.076-16.302-67.927-21.737-67.927-21.737
		s-13.586,17.662-17.662,25.21c-4.075,7.549,4.076,18.265,17.662,18.265C342.813,543.539,378.135,551.689,383.044,550.331z"/>
	<path style="fill:#F2EADD;" d="M383.044,580.219c-3.242-13.585-41.385-13.215-45.665-13.585c-11.936-1.031-9.51,33.964,0,42.115
		c9.51,8.151,38.04-2.718,45.665-5.434C390.671,600.597,386.287,593.805,383.044,580.219z"/>
	<path style="fill:#F2EADD;" d="M397.322,752.755c-6.652,0.164-34.13,28.53-28.696,47.55c5.435,19.02,20.378,5.434,39.614,5.434
		c19.235,0,7.936-23.096,10.653-39.398C421.609,750.039,402.588,752.626,397.322,752.755z"/>
	<path style="fill:#F2EADD;" d="M387.275,879.101c13.214-2.717,20.749-4.076,32.487-13.585c11.739-9.51,4.564-14.944,0-27.171
		c-4.564-12.227-33.211-10.627-36.718-10.869c-11.505-0.792-19.853,35.323-20.968,44.832
		C360.96,881.818,374.06,881.818,387.275,879.101z"/>
	<path style="fill:#F2EADD;" d="M407.993,957.897c13.555-1.358,9.541-12.227,11.77-23.096c2.229-10.868,14.074-29.888,6.386-32.605
		c-7.689-2.717-38.874,0-38.874,0c-5.684,0.429-17.291,33.963-11.856,50.266C380.852,968.765,394.438,959.255,407.993,957.897z"/>
	<path style="fill:#F2EADD;" d="M433.589,1005.446c-5.681-8.151-9.263-20.379-13.827-29.888c-4.564-9.51-22.44,0-22.44,0
		s1.192,35.323,11.549,46.191c10.357,10.868,10.022,2.717,32.55,0C463.949,1019.031,439.271,1013.597,433.589,1005.446z"/>
	<path style="fill:#F2EADD;" d="M353.375,797.587c17.354-4.075,3.023-24.454,8.634-35.322c5.611-10.868-18.127-9.734-18.127-9.734
		c-8.773-0.396-28.24,32.83-24.164,45.056C323.793,809.815,336.02,801.663,353.375,797.587z"/>
	<path style="fill:#F2EADD;" d="M353.918,842.42c4.312-12.227-12.902-14.957-12.902-14.957
		c-13.124-8.459-22.657,19.032-21.851,26.601c0.804,7.568,14.139,15.527,24.718,15.527
		C354.461,869.591,349.606,854.647,353.918,842.42z"/>
	<path style="fill:#F2EADD;" d="M362.009,910.347c2.893-12.227-12.226-9.821-18.127-9.359
		c-10.339,0.809-16.013,22.945-14.571,30.449c1.442,7.504,14.861,10.157,28.981,7.44
		C372.413,936.16,359.116,922.574,362.009,910.347z"/>
	<path style="fill:#F2EADD;" d="M362.009,961.885c-17.675,2.405,9.333,36.768,25.265,37.401c15.932,0.634-3.705-11.502-4.231-22.37
		C382.519,966.048,362.009,961.885,362.009,961.885z"/>
	<path style="fill:#F2EADD;" d="M469.158,1171.189c12.227,8.152,23.096-9.51,28.529-23.095c5.435-13.585-9.51-16.303-9.51-16.303
		s-27.171,6.793-37.44,20.734C440.47,1166.465,456.932,1163.038,469.158,1171.189z"/>
	<path style="fill:#F2EADD;" d="M444.345,1220.097c15.943,2.718,11.228-8.151,15.304-27.171
		c4.076-19.02-30.938-19.669-30.938-19.669c-8.747-0.848-11.178,21.027-8.949,31.896
		C421.991,1216.022,428.402,1217.381,444.345,1220.097z"/>
	<path style="fill:#F2EADD;" d="M433.729,1283.949c13.478-1.358,10.975-14.944,13.784-33.964c2.809-19.02-27.75-14.944-27.75-14.944
		s-11.738,21.737-9.021,33.964C413.458,1281.232,420.251,1285.308,433.729,1283.949z"/>
	<path style="fill:#F2EADD;" d="M426.148,1350.518c12.69-1.359,13.122-12.227,13.333-32.605
		c0.211-20.378-29.148-12.227-29.148-12.227c-6.702,1.256-11.819,29.888-8.974,35.323
		C404.204,1346.443,413.458,1351.877,426.148,1350.518z"/>
	<path style="fill:#F2EADD;" d="M429.014,1379.048c-6.18-14.944-27.655-9.51-27.655-9.51c-6.617,0.904-10.997,16.302-7.864,32.605
		c3.133,16.303,19.963,9.51,32.653,8.151C438.838,1408.937,435.195,1393.992,429.014,1379.048z"/>
	<path style="fill:#F2EADD;" d="M473.195,1471.429c9.471-6.793-12.188-21.737-22.457-33.963
		c-10.268-12.227-26.708,6.793-26.708,6.793s8.447,28.53,15.452,35.323C446.488,1486.374,463.725,1478.222,473.195,1471.429z"/>
	<path style="fill:#F2EADD;" d="M459.978,1505.393c-5.104-13.585-20.497,0-20.497,0c-6.478,4.283-7.004,24.454-4.821,33.964
		c2.182,9.51,18.195,6.793,25.318,0C467.102,1532.564,465.083,1518.979,459.978,1505.393z"/>
	<path style="fill:#F2EADD;" d="M475.536,1561.094c-12.643-13.586-28.024,5.434-28.024,5.434s18.929,28.529,25.683,33.964
		c6.754,5.434,14.983,5.434,25.682,0C509.577,1595.058,488.178,1574.68,475.536,1561.094z"/>
	<path style="fill:#F2EADD;" d="M520.784,1627.663c-12.226-17.661-21.906,0-21.906,0s8.321,35.322,15.113,44.832
		c6.793,9.51,14.944,4.076,29.888,0C558.823,1668.42,533.01,1645.325,520.784,1627.663z"/>
	<path style="fill:#F2EADD;" d="M579.202,1701.025c-14.944-5.434-29.783-4.415-30.795,0c-4.983,21.737,43.022,27.171,57.967,25.813
		C621.316,1725.479,594.146,1706.459,579.202,1701.025z"/>
	<path style="fill:#F2EADD;" d="M649.847,1712.177c0,0-19.02,18.453,0,28.104c19.02,9.651,29.888,27.313,33.964,19.162
		c4.076-8.152,2.717-18.63,0-32.41C681.093,1713.252,649.847,1712.177,649.847,1712.177z"/>
	<path style="fill:#F2EADD;" d="M759.889,1740.281c-10.868-8.01-46.191,0-46.191,0s-12.227,28.671,5.434,32.747
		c17.662,4.076,47.55,12.227,46.191,0C763.964,1760.801,770.758,1748.291,759.889,1740.281z"/>
	<path style="fill:#F2EADD;" d="M723.208,1712.177c1.226-6.027-20.739-20.096-36.826-8.435
		c-16.086,11.661,11.013,13.585,23.193,23.29C721.756,1736.738,722.652,1714.908,723.208,1712.177z"/>
	<path style="fill:#F2EADD;" d="M641.393,1684.722c0,0-11.926-6.793-19.872-6.942c-7.948-0.15-23.299,0.15-21.941,13.735
		c1.358,13.586,21.737,16.303,33.964,20.662C645.771,1716.536,644.412,1688.798,641.393,1684.722z"/>
	<path style="fill:#F2EADD;" d="M539.595,1619.814c7.943,8.453,14.678-6.595,9.352-15.246c-5.326-8.651-18.704-30.38-18.704-30.38
		s-13.535,14.077-12.177,24.06C519.425,1608.231,531.652,1611.361,539.595,1619.814z"/>
	<path style="fill:#F2EADD;" d="M579.383,1664.344c1.54-9.51-17.843-25.813-17.843-25.813s-10.869-4.076-13.135,0
		c-2.266,4.076,15.851,29.888,22.099,39.228C576.754,1687.098,577.843,1673.854,579.383,1664.344z"/>
	<path style="fill:#F2EADD;" d="M501.781,1545.512c9.526-3.354-2.735-19.741-2.903-30.609
		c-0.169-10.868-13.417-15.547-13.417-15.547c-8.721-5.482-9.51,26.416-9.925,40.002
		C475.121,1552.943,492.254,1548.867,501.781,1545.512z"/>
	<path style="fill:#F2EADD;" d="M450.738,1412.852c1.959,13.426,22.496,4.235,24.798-6.634
		c2.302-10.868-15.558-24.454-15.558-24.454C442.462,1377.712,448.78,1399.426,450.738,1412.852z"/>
	<path style="fill:#F2EADD;" d="M450.738,1321.989c-2.117,10.869,4.835,20.379,13.857,21.737c9.022,1.359,8.6-32.605,8.6-32.605
		s-4.037-12.227-13.217-16.302C450.799,1290.742,452.856,1311.12,450.738,1321.989z"/>
	<path style="fill:#F2EADD;" d="M484.103,1269.005c8.151-4.076,6.363-27.171,6.363-27.171c0.163-12.441-13.156-19.02-17.27-21.324
		c-4.114-2.304-6.754,37.026-8.6,46.044C462.748,1275.572,475.951,1273.081,484.103,1269.005z"/>
	<path style="fill:#F2EADD;" d="M563.841,1131.791c13.17-5.434,4.148-6.429,0-21.737c-4.147-15.307-29.43,9.51-29.43,9.51
		s0,0,0,12.227C534.41,1144.019,550.672,1137.226,563.841,1131.791z"/>
	<path style="fill:#F2EADD;" d="M523.642,1158.963c9.651-9.51-5.672-13.585-5.672-13.585s-25.716,13.896-16.189,27.881
		C511.307,1187.242,513.991,1168.473,523.642,1158.963z"/>
	<path style="fill:#F2EADD;" d="M610.721,1111.413c9.784,4.076,16.03-12.227,16.03-19.02c0-6.792-27.256,0-27.256,0
		C591.086,1094.146,600.938,1107.338,610.721,1111.413z"/>
	<path style="fill:#4C3B1A;" d="M1138.77,1325.645c14.83,6.533,42.002,21.477,42.681,15.363c0.679-6.113-20.379-19.02-24.454-25.812
		c-4.075-6.793-31.023-24.276-35.322-19.699c0,0-13.521,11.548-8.119,21.737C1118.958,1327.423,1123.94,1319.113,1138.77,1325.645z"
		/>
	<path style="fill:#382213;" d="M1190.961,1390.714c-6.793,1.92-51.625,10.071-62.493,6.675c-10.869-3.396-23.775-5.434-8.83-10.189
		c14.943-4.755,35.115-6.793,46.426-10.19c11.312-3.396,14.029-10.189,3.84-8.83c-10.189,1.359-44.153,0-48.229-0.679
		c-4.076-0.679,1.359-4.755,12.906-6.793c11.548-2.038,48.229,4.755,36.002-3.396c-12.227-8.151-67.248-10.868-67.248-10.868
		c-1.359,2.717-5.434,19.699-6.793,31.926c-1.359,12.227-15.624,34.643-6.793,41.436c8.83,6.792,24.454,7.472,33.285,10.189
		c8.831,2.717,43.474,8.151,33.285,12.227s-21.058,4.755-30.568,7.472s-23.774,4.755-27.85,10.189
		c-4.076,5.434,0,11.547,3.396,21.737c3.396,10.189,4.989,21.058,10.985,21.058c5.997,0,29.771-4.076,20.261,0
		c-9.51,4.075-22.861,6.113-20.261,11.547c2.6,5.434,2.95,15.624,10.247,23.775c7.298,8.151,26.317-11.751,20.203-4.177
		c-6.113,7.573-14.943,8.821-10.868,14.99c4.076,6.169,6.114,8.886,10.868,2.773c4.755-6.114,10.19-16.303,12.227-21.058
		c2.038-4.755,5.434-6.041,0.679-6.756c-4.755-0.716-20.379-0.643-25.133,0c-4.755,0.643-7.473-2.074-2.717-4.791
		c4.754-2.717,29.888-8.831,33.964-12.907c4.076-4.076,11.341-12.906,4.311-10.868c-7.029,2.038-26.42-4.076-38.122-4.755
		c-11.701-0.679-25.901-6.793-14.386-6.113c11.515,0.679,42.083-4.076,48.876-4.755c6.792-0.679,8.151,2.717,10.189-5.434
		c2.038-8.152,11.548-20.379,0-13.586c-11.548,6.793-46.191,11.548-48.908,9.51c-2.717-2.037-6.081-6.113,8.847-8.83
		c14.928-2.717,30.552-10.868,39.382-14.265c8.83-3.396,9.51,2.038,13.585-13.585
		C1189.602,1417.766,1197.753,1388.793,1190.961,1390.714z"/>
	<path style="fill:#4C3B1A;" d="M1127.788,1228.928c10.189,1.359,48.228-2.037,33.964,4.076s-33.284,5.434-31.926,11.548
		s-4.755,8.151,6.113,10.868c10.869,2.717,18.34,11.548,24.454,8.151c6.113-3.396,5.684-15.264,9.975-24.614
		c4.291-9.35,15.838-20.897,7.007-21.576c-8.831-0.68-36.681-1.359-23.096-6.793c13.586-5.434,20.379,0.679,23.775-6.113
		c3.397-6.793,4.755-20.378,10.189-29.888c5.435-9.51,7.936-24.293,5.327-31.845s4.183-25.893-8.043-27.252
		c-12.227-1.359-37.629,14.885-63.173,19.02c-25.544,4.135-40.757,10.189-29.208,11.548c11.547,1.359,69.286-4.755,57.059,2.717
		c-12.227,7.472-38.04,13.585-33.964,16.982c4.076,3.396,34.385-3.396,23.986,3.396c-10.4,6.793-17.193,7.458-23.306,12.22
		c-6.114,4.762,0.679,32.205,0.679,32.205C1118.958,1216.701,1117.599,1227.57,1127.788,1228.928z"/>
	<path style="fill:#4C3B1A;" d="M1099.258,1120.511c7.473,2.45,13.741-5.862,24.872-5.103c11.13,0.76,44.824-1.643,40.883-4.177
		c-3.941-2.535-61-12.857-65.755-9.733C1096.588,1103.252,1091.787,1118.061,1099.258,1120.511z"/>
	<path style="fill:#4C3B1A;" d="M1116.24,886.298c-6.793,2.442-2.717,6.388,4.755,7.068c7.473,0.679,32.605-4.755,45.068-7.068
		c12.463-2.313-7.708-20.104-7.708-20.104C1154.892,862.864,1123.033,883.856,1116.24,886.298z"/>
	<path style="fill:#4C3B1A;" d="M1144.77,908.989c10.869,1.359,18.791,9.51,25.359,4.755c6.568-4.755,0-14.944,0-14.944
		C1165.148,899.479,1133.901,907.63,1144.77,908.989z"/>
	<path style="fill:#4C3B1A;" d="M1138.77,932.764c8.717,5.434,35.893,9.784,32.155,12.025c-3.738,2.24-23.253,6.316-13.156,7.674
		c10.097,1.359,15.027,0.679,15.279,7.472c0.253,6.793-3.824,8.151-18.768,13.585c-14.943,5.434-34.573,6.698-32.57,13.538
		c2.003,6.84,40.217,8.878,51.338,11.595c11.121,2.718,16.554,12.907,21.31-2.717c4.755-15.624-13.585-63.172-13.585-63.172
		C1178.734,932.764,1130.053,927.33,1138.77,932.764z"/>
	<path style="fill:#4C3B1A;" d="M1124.13,851.25c5.172,5.435,21.999-0.679,34.226-5.434c12.227-4.755,13.586-15.623,14.692-26.492
		c1.107-10.868-2.44-42.359-2.919-40.077c-1.872,8.917-21.962,24.454-26.121,31.926c-4.16,7.472,12.311-1.359,14.349,0.679
		c2.038,2.038-1.359,7.472-14.349,13.585c-12.991,6.113-18.936,6.113-26.408,10.189
		C1110.127,839.703,1118.958,845.816,1124.13,851.25z"/>
	<path style="fill:#F8D118;" d="M1493.918,762.265c27.171-23.096,27.171-31.247,42.115-41.425
		c14.944-10.179,21.737-36.013,39.398-60.466c17.661-24.454,25.813-48.908,38.04-80.155c12.226-31.246,0-61.135,0-61.135
		c2.716-35.322-46.191-26.59-67.928,18.242c-21.737,44.832-80.155,143.425-82.872,163.045c-2.717,19.62,35.323-16.902,21.737,0
		c-13.585,16.902-67.928,87.706-88.306,103.674c-20.379,15.967,17.661-9.175,32.605-14.609
		c14.944-5.435-57.059,78.796-66.569,91.227C1352.629,893.096,1466.747,785.36,1493.918,762.265z"/>
	<path style="fill:#F8D118;" d="M1713.979,980.597c47.525,2.323,31.271-3.681,42.344-18.712
		c11.073-15.031,14.74-20.291,10.047-41.681c-4.691-21.391-25.345-14.174-27.913-19.216c-4.076-8.001-29.888-17.812-62.493-13.736
		c-32.605,4.075-118.194,28.529-154.875,44.185c-36.681,15.655-89.665,41.404-122.27,55.621
		c-32.605,14.218,29.888-8.783,55.701-6.461c25.813,2.323-78.796,46.585-100.533,58.813c-21.737,12.227,46.191-25.813,99.174-40.1
		c52.983-14.287,67.928-11.526,144.006-18.713C1673.247,973.411,1666.454,978.275,1713.979,980.597z"/>
	<path style="fill:#F8D118;" d="M1361.578,1152.525c11.751,13.88,63.055,9.155,80.716,9.295
		c17.661,0.14,46.191,13.445,82.872,16.443c36.681,2.997,32.605,5.154,52.118,0c19.512-5.154,42.981-17.942,58.875-32.886
		c15.895-14.944-26.763-16.302-66.114-33.319c-39.352-17.016-28.577-8.796-72.05-6.99c-43.474,1.806-124.987,26.724-124.987,26.724
		S1349.825,1138.644,1361.578,1152.525z"/>
	<path style="fill:#F8D118;" d="M1415.122,1294.287c13.585,21.205-48.908-29.358-65.297-24.766
		c-16.388,4.591,13.672,2.202,39.484,24.766c25.813,22.564,52.984,30.419,74.72,56.443c21.737,26.023,59.777,66.358,77.708,75.867
		c17.931,9.51,20.108,13.586,35.545,9.593c15.437-3.993,14.451-35.406,12.481-67.615c-1.97-32.21-14.332-33-33.401-49.549
		c-19.069-16.548-59.727-39.152-66.121-46.336c-6.394-7.184,67.529,28.921,79.802,31.386c12.273,2.466-40.803-30.995-71.133-44.639
		c-30.329-13.644-33.522-10.81-81.072-31.188c-47.549-20.379-68.014-13.586-68.014-13.586
		C1366.238,1212.846,1401.536,1273.081,1415.122,1294.287z"/>
	<path style="fill:#F8D118;" d="M1490.241,1566.514c18.621,47.563,26.772,78.655,40.358,92.318
		c13.585,13.663,17.597,24.531,28.498,13.663c10.9-10.868,5.402-39.398,0-58.418c-5.402-19.019-9.478-14.567-23.063-39.889
		c-13.585-25.321-48.908-117.467-126.346-183.474c0,0,2.511,3.776,22.313,47.001
		C1451.803,1480.939,1471.62,1518.951,1490.241,1566.514z"/>
	<path style="fill:#F8D118;" d="M850.912,789.437c14.944,5.434,52.983,30.576,32.605,14.609
		c-20.379-15.968-74.721-86.772-88.306-103.674c-13.585-16.902,24.454,19.62,21.737,0c-2.716-19.62-61.135-118.213-82.871-163.045
		c-21.737-44.832-70.645-53.565-67.928-18.242c0,0-12.227,29.888,0,61.135c12.227,31.247,20.379,55.701,38.04,80.155
		c17.661,24.454,24.453,50.287,39.398,60.466c14.945,10.178,14.945,18.33,42.115,41.425
		c27.171,23.095,141.289,130.83,131.779,118.399C907.971,868.232,835.968,784.002,850.912,789.437z"/>
	<path style="fill:#F8D118;" d="M825.099,980.597c25.812-2.323,88.306,20.679,55.701,6.461
		c-32.605-14.218-85.589-39.966-122.269-55.621c-36.681-15.655-122.27-40.11-154.875-44.185
		c-32.605-4.076-58.418,5.735-62.493,13.736c-2.569,5.042-23.222-2.175-27.914,19.216c-4.691,21.39-1.025,26.65,10.048,41.681
		c11.073,15.031-5.181,21.035,42.344,18.712c47.525-2.323,40.732-7.187,116.811,0c76.079,7.187,91.023,4.426,144.007,18.713
		c52.984,14.287,120.911,52.327,99.174,40.1C903.895,1027.183,799.287,982.92,825.099,980.597z"/>
	<path style="fill:#F8D118;" d="M906.612,1131.791c0,0-81.513-24.918-124.987-26.724c-43.474-1.806-32.699-10.026-72.05,6.99
		c-39.351,17.016-82.009,18.375-66.115,33.319c15.896,14.944,39.364,27.732,58.876,32.886c19.513,5.154,15.437,2.997,52.118,0
		c36.681-2.998,65.211-16.303,82.872-16.443c17.661-0.14,68.964,4.585,80.716-9.295
		C929.794,1138.644,906.612,1131.791,906.612,1131.791z"/>
	<path style="fill:#F8D118;" d="M709.576,1304.076c12.274-2.466,86.197-38.57,79.803-31.386
		c-6.395,7.184-47.052,29.788-66.122,46.336c-19.068,16.549-31.431,17.339-33.401,49.549c-1.97,32.21-2.955,63.623,12.481,67.615
		c15.437,3.992,17.615-0.083,35.546-9.593c17.93-9.51,55.97-49.844,77.706-75.867c21.738-26.023,48.908-33.879,74.721-56.443
		c25.812-22.564,55.872-20.175,39.483-24.766c-16.388-4.591-78.882,45.971-65.296,24.766c13.585-21.206,48.883-81.441,65.296-79.624
		c0,0-20.464-6.793-68.014,13.586c-47.549,20.378-50.742,17.544-81.072,31.188C750.379,1273.081,697.302,1306.542,709.576,1304.076z
		"/>
	<path style="fill:#F8D118;" d="M720.523,1614.077c-5.403,19.02-10.9,47.55,0,58.418s14.912,0,28.498-13.663
		c13.585-13.663,21.737-44.755,40.358-92.318c18.621-47.563,38.437-85.575,58.24-128.799c19.802-43.225,22.313-47.001,22.313-47.001
		c-77.437,66.007-112.76,158.153-126.346,183.474C730,1599.51,725.925,1595.058,720.523,1614.077z"/>
</g>
</svg>
